<?xml version="1.0" standalone="no"?>
<!DOCTYPE svg PUBLIC "-//W3C//DTD SVG 20010904//EN"
 "http://www.w3.org/TR/2001/REC-SVG-20010904/DTD/svg10.dtd">
<svg version="1.0" xmlns="http://www.w3.org/2000/svg"
 width="176.000000pt" height="176.000000pt" viewBox="0 0 176.000000 176.000000"
 preserveAspectRatio="xMidYMid meet">
<metadata>
Created by potrace 1.11, written by Peter Selinger 2001-2013
</metadata>
<g transform="translate(0.000000,176.000000) scale(0.100000,-0.100000)"
fill="#000000" stroke="none">
<path d="M744 1744 c-31 -11 -41 -19 -38 -32 3 -11 -6 -23 -24 -33 -24 -14
-29 -22 -25 -43 6 -31 -9 -34 -64 -11 -39 17 -57 10 -68 -26 -11 -34 -50 -42
-93 -19 -46 25 -60 25 -39 2 10 -10 17 -26 17 -34 0 -9 6 -19 13 -21 16 -7
-13 -29 -30 -22 -13 4 -18 -22 -15 -73 1 -21 -2 -23 -24 -18 -23 6 -24 4 -18
-21 l6 -28 -21 25 -21 25 0 -30 c-1 -49 -11 -75 -31 -75 -10 0 -37 -25 -64
-60 -25 -33 -51 -60 -56 -60 -5 0 -9 -8 -7 -17 2 -12 -4 -19 -18 -21 -11 -2
-28 -17 -38 -33 -11 -18 -23 -28 -32 -25 -23 9 -16 -22 9 -38 12 -8 34 -18 50
-21 32 -8 34 -15 7 -38 -23 -19 -25 -44 -6 -70 7 -9 11 -28 8 -42 -3 -20 0
-25 17 -25 24 0 28 -18 7 -26 -8 -3 -14 -19 -14 -40 0 -32 2 -33 27 -27 26 6
26 6 8 -15 -10 -11 -20 -28 -21 -38 -2 -10 -25 -29 -54 -43 -56 -29 -70 -55
-24 -46 25 5 25 5 5 -4 -30 -14 -29 -27 4 -48 16 -10 32 -23 36 -31 5 -8 17
-10 29 -6 19 6 20 3 15 -23 -7 -37 0 -47 44 -63 28 -10 35 -17 31 -32 -3 -14
3 -22 26 -30 25 -10 28 -15 19 -29 -13 -20 25 -79 51 -79 10 0 23 -9 30 -21 8
-12 21 -19 35 -17 16 2 26 -6 42 -37 13 -25 36 -48 60 -60 21 -11 41 -27 43
-35 14 -42 63 -51 86 -15 9 13 26 30 38 36 19 10 24 8 41 -12 31 -39 216 -88
266 -71 25 9 29 8 24 -4 -3 -8 0 -14 6 -14 7 0 17 14 23 32 10 28 12 30 24 13
9 -13 20 -16 39 -11 22 6 25 9 15 21 -18 21 -5 45 25 45 28 0 105 31 105 42 0
11 46 58 52 53 2 -2 20 -7 40 -10 32 -5 36 -3 42 19 4 17 11 23 21 20 8 -4 15
-1 15 5 0 6 24 27 54 46 65 42 72 50 49 65 -15 10 -14 10 9 6 26 -6 50 8 28
16 -21 7 -17 43 6 71 13 15 32 58 44 95 13 44 33 83 57 112 24 27 33 45 25 48
-7 2 -9 8 -6 14 4 7 -2 7 -17 3 -21 -7 -22 -6 -10 9 7 9 21 16 30 16 15 1 15
1 0 10 -9 5 -19 21 -23 34 -6 23 -9 24 -65 19 -53 -5 -59 -4 -58 13 3 40 -14
161 -27 204 -28 94 -70 169 -134 243 -18 21 -30 42 -27 47 4 6 2 10 -4 10 -6
0 11 29 36 65 36 49 50 62 60 53 7 -5 10 -14 7 -19 -3 -5 1 -9 8 -9 7 -1 1 -7
-13 -15 -15 -8 -29 -21 -33 -30 -9 -24 41 -19 54 5 14 26 24 25 37 -3 10 -22
53 -35 53 -16 0 5 -4 9 -10 9 -5 0 -10 6 -10 14 0 8 -8 17 -19 21 -13 4 -17
13 -14 33 3 20 2 23 -5 13 -11 -16 -47 -7 -37 9 4 6 4 22 1 36 -6 21 -9 23
-27 13 -12 -6 -18 -17 -15 -25 3 -9 -4 -16 -19 -20 -14 -3 -26 -12 -26 -20 -1
-8 -3 -18 -4 -24 -1 -5 -3 -14 -4 -20 0 -5 -5 -10 -10 -10 -5 0 -7 10 -4 23 3
13 1 18 -4 12 -18 -23 -73 -56 -83 -50 -8 5 -7 11 1 21 13 16 -2 19 -17 4 -10
-10 -74 22 -74 37 0 12 49 63 60 63 6 0 12 0 15 0 3 0 4 -3 3 -7 -2 -5 -6 -7
-10 -5 -11 3 -10 -12 2 -44 10 -25 12 -26 24 -9 10 14 16 16 34 6 20 -11 22
-9 22 14 0 26 -24 35 -33 13 -4 -8 -6 -7 -6 4 -1 18 51 40 74 32 8 -4 15 -1
15 5 0 7 7 11 16 9 10 -2 19 3 22 11 3 9 -1 11 -17 6 -16 -5 -21 -2 -21 12 0
12 -3 14 -8 6 -15 -24 -51 -3 -58 34 -4 19 -10 30 -14 24 -4 -8 -14 -5 -32 8
-18 14 -28 17 -36 9 -7 -7 -17 -3 -32 15 -21 24 -26 25 -98 20 -73 -5 -78 -4
-101 21 l-25 26 -22 -21 -22 -21 -11 21 c-7 12 -17 21 -24 21 -7 0 -29 9 -50
20 -20 11 -38 20 -39 19 -2 0 -22 -7 -44 -15z m496 -164 c-6 -11 -18 -20 -26
-20 -8 0 -12 5 -9 10 3 6 -1 10 -9 10 -9 0 -16 6 -16 14 0 19 17 30 22 14 3
-8 9 -6 19 4 12 13 15 14 22 2 4 -8 3 -23 -3 -34z m-114 -6 c-3 -9 -6 -23 -6
-32 0 -9 -8 -26 -16 -37 -15 -20 -15 -20 -30 -1 -12 17 -14 17 -14 4 0 -23
-14 -30 -42 -19 -12 6 -16 10 -8 10 11 1 12 3 1 14 -10 10 -15 8 -27 -7 -12
-17 -14 -17 -14 -3 0 9 11 28 24 43 23 28 23 28 30 6 10 -29 17 -28 51 8 31
32 61 41 51 14z m-396 -50 c0 -13 5 -24 11 -24 5 0 7 5 3 12 -4 7 -3 8 5 4 14
-9 5 -26 -13 -26 -8 0 -16 10 -20 23 -9 33 -7 49 4 42 6 -3 10 -17 10 -31z
m-132 -38 c2 -15 0 -35 -3 -44 -6 -15 -8 -15 -15 3 -5 11 -9 33 -9 48 -1 37
23 31 27 -7z m133 -465 c79 -1 106 -18 111 -71 3 -33 1 -35 -29 -38 -28 -3
-32 0 -35 25 l-3 28 -175 3 -175 2 0 -162 0 -163 175 0 175 0 0 65 -1 65 -49
2 c-28 1 -67 2 -87 2 -34 1 -38 4 -38 26 l0 25 114 0 c79 0 116 -4 122 -12 12
-17 5 -190 -7 -183 -5 3 -6 -1 -3 -9 12 -31 -34 -39 -229 -37 -104 1 -197 6
-207 11 -32 17 -41 69 -36 221 3 79 8 152 12 163 13 34 60 44 184 41 63 -2
145 -4 181 -4z m638 -201 c-2 -113 -5 -213 -7 -223 -4 -14 -12 -17 -36 -15
l-31 3 -1 70 c-1 39 -2 78 -3 88 -1 15 -12 17 -89 17 -108 0 -117 -7 -127
-102 -6 -53 -11 -68 -24 -69 -9 -1 -26 -3 -39 -4 -16 -2 -22 2 -18 12 3 8 8
38 11 66 9 83 10 85 33 110 l23 24 -25 19 c-17 12 -27 32 -32 60 -7 48 -2 69
26 103 32 37 80 48 217 47 l124 -1 -2 -205z m-1139 176 c0 -11 -19 -15 -25 -6
-3 5 1 10 9 10 9 0 16 -2 16 -4z m455 -822 c-8 -16 -15 -23 -15 -16 0 17 20
55 26 49 2 -2 -2 -17 -11 -33z m285 -100 c0 -8 -4 -12 -10 -9 -5 3 -10 10 -10
16 0 5 5 9 10 9 6 0 10 -7 10 -16z"/>
<path d="M1134 959 c-43 -7 -64 -31 -64 -71 0 -31 30 -67 58 -69 68 -5 162 -4
164 0 0 3 2 36 3 73 l2 66 -63 4 c-34 2 -80 0 -100 -3z"/>
<path d="M1315 1591 c-6 -11 9 -23 19 -14 9 9 7 23 -3 23 -6 0 -12 -4 -16 -9z"/>
<path d="M1532 1462 c-12 -2 -20 -8 -16 -13 3 -5 10 -6 16 -3 6 4 17 -2 25
-12 14 -19 14 -19 28 0 24 32 12 38 -53 28z"/>
<path d="M1176 1451 c-7 -11 22 -23 36 -15 6 4 5 10 -3 15 -18 11 -26 11 -33
0z"/>
<path d="M1590 1390 c-13 -8 -12 -10 3 -10 9 0 17 5 17 10 0 12 -1 12 -20 0z"/>
<path d="M1565 1350 c-4 -6 -12 -7 -18 -4 -8 5 -8 3 0 -6 20 -22 41 -21 36 1
-6 22 -9 23 -18 9z"/>
<path d="M1420 1320 c-12 -7 -12 -12 -3 -21 9 -9 16 -9 27 1 26 21 5 39 -24
20z"/>
<path d="M1620 1323 c0 -7 -11 -15 -25 -19 -32 -8 -33 -24 -1 -24 30 0 48 21
36 40 -7 10 -10 11 -10 3z"/>
<path d="M1520 1302 c1 -17 19 -34 29 -28 17 11 13 23 -9 29 -11 3 -20 2 -20
-1z"/>
<path d="M1473 1252 c-11 -9 -24 -28 -28 -41 -6 -20 -4 -23 10 -18 9 4 19 7
21 7 2 0 4 8 4 18 0 10 5 23 12 30 19 19 5 22 -19 4z"/>
<path d="M1523 1239 c-13 -5 -23 -13 -23 -19 0 -13 10 -12 39 4 28 16 16 27
-16 15z"/>
<path d="M1665 1218 c-12 -18 -17 -20 -24 -9 -5 7 -14 10 -20 7 -21 -13 1 -28
32 -22 35 7 59 24 51 37 -9 15 -22 10 -39 -13z"/>
<path d="M1573 1179 c14 -8 22 -8 30 0 8 8 3 11 -18 11 -26 -1 -28 -2 -12 -11z"/>
<path d="M1628 1173 c-21 -5 -24 -19 -5 -26 18 -6 37 3 37 19 0 14 -3 15 -32
7z"/>
<path d="M1676 1173 c-3 -3 -3 -10 0 -14 7 -12 34 -11 34 0 0 11 -26 22 -34
14z"/>
<path d="M1583 1061 c-6 -25 -18 -27 -27 -5 -3 8 -11 12 -17 8 -16 -9 20 -36
39 -29 8 3 16 -3 19 -13 5 -19 43 -28 43 -10 0 5 -12 24 -26 40 -24 30 -25 30
-31 9z"/>
<path d="M1610 970 c20 -13 33 -13 25 0 -3 6 -14 10 -23 10 -15 0 -15 -2 -2
-10z"/>
<path d="M1710 850 c0 -5 9 -10 21 -10 11 0 17 5 14 10 -3 6 -13 10 -21 10 -8
0 -14 -4 -14 -10z"/>
<path d="M1650 840 c0 -5 12 -10 26 -10 14 0 23 4 19 10 -3 6 -15 10 -26 10
-10 0 -19 -4 -19 -10z"/>
<path d="M1701 811 c-7 -5 -9 -11 -4 -14 5 -3 15 -2 22 2 7 5 9 11 4 14 -5 3
-15 2 -22 -2z"/>
</g>
</svg>
